<?xml version="1.0" standalone="no"?>
<!DOCTYPE svg PUBLIC "-//W3C//DTD SVG 20010904//EN"
 "http://www.w3.org/TR/2001/REC-SVG-20010904/DTD/svg10.dtd">
<svg version="1.0" xmlns="http://www.w3.org/2000/svg"
 width="600.000000pt" height="600.000000pt" viewBox="0 0 600.000000 600.000000"
 preserveAspectRatio="xMidYMid meet">

<g transform="translate(0.000000,600.000000) scale(0.100000,-0.100000)"
fill="#000000" stroke="none">
<path d="M1605 4803 c-90 -13 -199 -69 -271 -139 -66 -64 -107 -129 -135 -213
l-23 -66 0 -1320 -1 -1320 23 -67 c61 -175 220 -316 394 -348 37 -7 528 -10
1434 -8 l1379 3 60 24 c125 50 223 136 283 249 65 122 62 45 62 1472 0 1431 4
1337 -63 1465 -68 128 -223 243 -359 265 -55 8 -2722 12 -2783 3z m2853 -167
c80 -37 161 -122 194 -203 l23 -58 0 -1315 0 -1315 -34 -70 c-42 -85 -102
-145 -189 -187 l-67 -33 -1359 -3 c-1481 -3 -1424 -5 -1522 53 -60 35 -127
107 -160 172 l-29 58 0 1330 0 1330 23 47 c53 107 126 175 225 209 49 18 125
18 1442 16 l1390 -2 63 -29z"/>
</g>
</svg>
